<svg width="95" height="90" viewBox="0 0 95 90" fill="none" xmlns="http://www.w3.org/2000/svg">
<path d="M16.2699 20.4536H20.1759V59.0176H15.5259L7.52791 29.1336V59.0176H3.62191V20.4536H8.58191L16.2699 49.2836V20.4536ZM27.861 20.4536H34.185C37.4503 20.4536 39.083 22.0862 39.083 25.3516V54.1196C39.083 57.3849 37.4503 59.0176 34.185 59.0176H27.861C24.5957 59.0176 22.963 57.3849 22.963 54.1196V25.3516C22.963 22.0862 24.5957 20.4536 27.861 20.4536ZM34.867 53.4376V26.0336C34.867 25.2069 34.743 24.6902 34.495 24.4836C34.247 24.2356 33.7303 24.1116 32.945 24.1116H29.101C28.3157 24.1116 27.799 24.2356 27.551 24.4836C27.303 24.6902 27.179 25.2069 27.179 26.0336V53.4376C27.179 54.2642 27.303 54.8016 27.551 55.0496C27.799 55.2562 28.3157 55.3596 29.101 55.3596H32.945C33.7303 55.3596 34.247 55.2562 34.495 55.0496C34.743 54.8016 34.867 54.2642 34.867 53.4376ZM46.1108 42.8976V59.0176H41.8948V20.4536H53.1168C56.3821 20.4536 58.0148 22.0862 58.0148 25.3516V37.9996C58.0148 40.9342 56.7335 42.5462 54.1708 42.8356L59.9988 59.0176H55.4108L49.7688 42.8976H46.1108ZM46.1108 24.1116V39.2396H51.8768C52.7035 39.2396 53.2201 39.1362 53.4268 38.9296C53.6748 38.6816 53.7988 38.1442 53.7988 37.3176V26.0336C53.7988 25.2069 53.6748 24.6902 53.4268 24.4836C53.2201 24.2356 52.7035 24.1116 51.8768 24.1116H46.1108ZM74.2748 20.4536V24.1116H68.0748V59.0176H63.8588V24.1116H57.6588V20.4536H74.2748ZM78.8827 20.4536H85.2067C88.472 20.4536 90.1047 22.0862 90.1047 25.3516V54.1196C90.1047 57.3849 88.472 59.0176 85.2067 59.0176H78.8827C75.6173 59.0176 73.9847 57.3849 73.9847 54.1196V25.3516C73.9847 22.0862 75.6173 20.4536 78.8827 20.4536ZM85.8887 53.4376V26.0336C85.8887 25.2069 85.7647 24.6902 85.5167 24.4836C85.2687 24.2356 84.752 24.1116 83.9667 24.1116H80.1227C79.3373 24.1116 78.8207 24.2356 78.5727 24.4836C78.3247 24.6902 78.2007 25.2069 78.2007 26.0336V53.4376C78.2007 54.2642 78.3247 54.8016 78.5727 55.0496C78.8207 55.2562 79.3373 55.3596 80.1227 55.3596H83.9667C84.752 55.3596 85.2687 55.2562 85.5167 55.0496C85.7647 54.8016 85.8887 54.2642 85.8887 53.4376Z" fill="#030211"/>
</svg>
