<svg width="24" height="24" viewBox="0 0 24 24" fill="none" xmlns="http://www.w3.org/2000/svg">
<path fill-rule="evenodd" clip-rule="evenodd" d="M10.835 12.0067L10.8366 12.3608C10.8487 13.7653 10.9334 15.0184 11.0794 15.8125C11.0794 15.8268 11.2387 16.6144 11.3401 16.8766C11.4994 17.2555 11.7874 17.5771 12.1485 17.7809C12.4376 17.9263 12.7408 18.0001 13.0583 18.0001C13.3078 17.9886 13.7194 17.863 14.0131 17.7577L14.2572 17.6642C15.8739 17.022 18.9644 14.9236 20.148 13.6403L20.2353 13.5506L20.6247 13.1303C20.8702 12.8086 21 12.4154 21 11.9924C21 11.6135 20.8844 11.2346 20.6531 10.9283C20.5839 10.8291 20.4723 10.7019 20.3731 10.5943L19.994 10.1975C18.6895 8.87584 15.8652 7.02195 14.4012 6.40769C14.4012 6.39447 13.4914 6.01444 13.0583 6.00012H13.0005C12.3361 6.00012 11.7154 6.37905 11.3979 6.99149C11.3112 7.15893 11.228 7.4869 11.1648 7.77495L11.051 8.31883C10.9212 9.19344 10.835 10.5351 10.835 12.0067ZM4.50325 10.4818C3.67308 10.4818 3 11.1614 3 11.9997C3 12.8379 3.67308 13.5176 4.50325 13.5176L8.20248 13.1904C8.85375 13.1904 9.38174 12.6584 9.38174 11.9997C9.38174 11.3421 8.85375 10.8089 8.20248 10.8089L4.50325 10.4818Z" fill="black"/>
</svg>
