<svg width="25" height="25" viewBox="0 0 25 25" fill="none" xmlns="http://www.w3.org/2000/svg">
<g clip-path="url(#clip0_306_3521)">
<path d="M12.9411 24.9706C6.32613 24.9706 0.941132 19.5856 0.941132 12.9706C0.941132 6.35555 6.32613 0.970551 12.9411 0.970551C19.5561 0.970551 24.9411 6.35555 24.9411 12.9706C24.9411 19.5856 19.5561 24.9706 12.9411 24.9706ZM23.0611 14.6126C22.7111 14.5026 19.8911 13.6596 16.6771 14.1746C18.0171 17.8586 18.5641 20.8585 18.6691 21.4825C20.9691 19.9275 22.6051 17.4626 23.0641 14.6126H23.0611ZM16.9461 22.4206C16.7931 21.5206 16.1961 18.3885 14.7561 14.6506L14.6901 14.6706C8.90013 16.6856 6.83013 20.6956 6.65013 21.0706C8.38013 22.4286 10.5701 23.2366 12.9401 23.2366C14.3601 23.2366 15.7101 22.9466 16.9401 22.4226L16.9461 22.4206ZM5.32613 19.8406C5.55813 19.4406 8.37113 14.7856 13.6581 13.0756C13.7931 13.0306 13.9281 12.9916 14.0631 12.9556C13.8031 12.3706 13.5231 11.7886 13.2311 11.2156C8.11113 12.7456 3.14713 12.6806 2.69713 12.6706L2.69313 12.9826C2.69313 15.6156 3.69113 18.0196 5.32713 19.8376L5.32613 19.8406ZM2.90613 10.8856C3.36613 10.8936 7.58913 10.9116 12.3831 9.63755C10.6851 6.61955 8.85313 4.07955 8.58313 3.70955C5.71513 5.05955 3.57313 7.69955 2.90713 10.8796L2.90613 10.8856ZM10.5411 3.02255C10.8231 3.40255 12.6861 5.93655 14.3631 9.02255C18.0081 7.65755 19.5531 5.58255 19.7361 5.32055C17.9261 3.71055 15.5461 2.73455 12.9411 2.73455C12.1161 2.73455 11.3111 2.83455 10.5411 3.01955V3.02255ZM20.8761 6.50555C20.6581 6.79555 18.9411 8.99855 15.1521 10.5456C15.3921 11.0356 15.6221 11.5306 15.8321 12.0316C15.9121 12.2116 15.9821 12.3916 16.0521 12.5616C19.4621 12.1315 22.8521 12.8216 23.1921 12.8916C23.1721 10.4715 22.3121 8.25155 20.8821 6.51155L20.8761 6.50555Z" fill="black"/>
</g>
<defs>
<clipPath id="clip0_306_3521">
<rect width="24" height="24" fill="white" transform="translate(0.941132 0.970551)"/>
</clipPath>
</defs>
</svg>
