<svg width="25" height="25" viewBox="0 0 25 25" fill="none" xmlns="http://www.w3.org/2000/svg">
<g clip-path="url(#clip0_306_3543)">
<path d="M24.9412 13.0435C24.9412 6.41655 19.5682 1.04355 12.9412 1.04355C6.31416 1.04355 0.941162 6.41655 0.941162 13.0435C0.941162 19.0335 5.32916 23.9975 11.0662 24.8975V16.5125H8.01916V13.0425H11.0662V10.4005C11.0662 7.39355 12.8582 5.73155 15.5992 5.73155C16.9112 5.73155 18.2852 5.96655 18.2852 5.96655V8.91955H16.7712C15.2802 8.91955 14.8152 9.84455 14.8152 10.7935V13.0435H18.1432L17.6112 16.5135H14.8152V24.8985C20.5532 23.9975 24.9412 19.0325 24.9412 13.0435Z" fill="black"/>
</g>
<defs>
<clipPath id="clip0_306_3543">
<rect width="24" height="24" fill="white" transform="translate(0.941162 0.970551)"/>
</clipPath>
</defs>
</svg>
