<svg width="25" height="25" viewBox="0 0 25 25" fill="none" xmlns="http://www.w3.org/2000/svg">
<g clip-path="url(#clip0_306_3443)">
<path d="M12.9411 0.970551C9.68113 0.970551 9.27413 0.985551 7.99413 1.04255C6.71613 1.10255 5.84613 1.30355 5.08113 1.60055C4.29213 1.90655 3.62213 2.31755 2.95513 2.98455C2.28813 3.65155 1.87613 4.32055 1.57113 5.11055C1.27413 5.87555 1.07213 6.74555 1.01313 8.02355C0.953132 9.30355 0.941132 9.71055 0.941132 12.9706C0.941132 16.2306 0.956132 16.6376 1.01313 17.9176C1.07313 19.1946 1.27413 20.0656 1.57113 20.8306C1.87713 21.6186 2.28813 22.2896 2.95513 22.9566C3.62213 23.6226 4.29113 24.0356 5.08113 24.3406C5.84713 24.6366 6.71713 24.8396 7.99413 24.8986C9.27413 24.9585 9.68113 24.9706 12.9411 24.9706C16.2011 24.9706 16.6081 24.9555 17.8881 24.8986C19.1651 24.8386 20.0361 24.6366 20.8011 24.3406C21.5891 24.0346 22.2601 23.6226 22.9271 22.9566C23.5931 22.2896 24.0061 21.6216 24.3111 20.8306C24.6071 20.0656 24.8101 19.1946 24.8691 17.9176C24.9291 16.6376 24.9411 16.2306 24.9411 12.9706C24.9411 9.71055 24.9261 9.30355 24.8691 8.02355C24.8091 6.74655 24.6071 5.87455 24.3111 5.11055C24.0051 4.32155 23.5931 3.65155 22.9271 2.98455C22.2601 2.31755 21.5921 1.90555 20.8011 1.60055C20.0361 1.30355 19.1651 1.10155 17.8881 1.04255C16.6081 0.982551 16.2011 0.970551 12.9411 0.970551ZM12.9411 3.13055C16.1441 3.13055 16.5261 3.14655 17.7911 3.20155C18.9611 3.25655 19.5961 3.45055 20.0181 3.61655C20.5801 3.83355 20.9781 4.09355 21.4001 4.51255C21.8191 4.93255 22.0791 5.33155 22.2961 5.89355C22.4601 6.31555 22.6561 6.95055 22.7091 8.12055C22.7661 9.38655 22.7791 9.76655 22.7791 12.9706C22.7791 16.1746 22.7641 16.5556 22.7051 17.8206C22.6441 18.9906 22.4491 19.6255 22.2841 20.0476C22.0601 20.6096 21.8051 21.0075 21.3851 21.4296C20.9661 21.8486 20.5611 22.1086 20.0051 22.3256C19.5851 22.4895 18.9401 22.6856 17.7701 22.7386C16.4961 22.7955 16.1211 22.8085 12.9111 22.8085C9.70013 22.8085 9.32513 22.7936 8.05213 22.7346C6.88113 22.6735 6.23613 22.4786 5.81613 22.3136C5.24713 22.0896 4.85613 21.8346 4.43713 21.4146C4.01613 20.9956 3.74713 20.5905 3.53713 20.0345C3.37213 19.6145 3.17813 18.9696 3.11713 17.7996C3.07213 16.5396 3.05613 16.1505 3.05613 12.9556C3.05613 9.75955 3.07213 9.36955 3.11713 8.09455C3.17813 6.92455 3.37213 6.28055 3.53713 5.86055C3.74713 5.29055 4.01613 4.90055 4.43713 4.47955C4.85613 4.06055 5.24713 3.79055 5.81613 3.58155C6.23613 3.41555 6.86713 3.22055 8.03713 3.16055C9.31213 3.11555 9.68713 3.10055 12.8961 3.10055L12.9411 3.13055ZM12.9411 6.80855C9.53613 6.80855 6.77913 9.56855 6.77913 12.9706C6.77913 16.3756 9.53913 19.1326 12.9411 19.1326C16.3461 19.1326 19.1031 16.3726 19.1031 12.9706C19.1031 9.56555 16.3431 6.80855 12.9411 6.80855ZM12.9411 16.9706C10.7311 16.9706 8.94113 15.1806 8.94113 12.9706C8.94113 10.7606 10.7311 8.97055 12.9411 8.97055C15.1511 8.97055 16.9411 10.7606 16.9411 12.9706C16.9411 15.1806 15.1511 16.9706 12.9411 16.9706ZM20.7871 6.56555C20.7871 7.36055 20.1411 8.00555 19.3471 8.00555C18.5521 8.00555 17.9071 7.35955 17.9071 6.56555C17.9071 5.77155 18.5531 5.12655 19.3471 5.12655C20.1401 5.12555 20.7871 5.77155 20.7871 6.56555Z" fill="#23262F"/>
</g>
<defs>
<clipPath id="clip0_306_3443">
<rect width="24" height="24" fill="white" transform="translate(0.941132 0.970551)"/>
</clipPath>
</defs>
</svg>
