<svg width="25" height="25" viewBox="0 0 25 25" fill="none" xmlns="http://www.w3.org/2000/svg">
<g clip-path="url(#clip0_306_3526)">
<path d="M21.3881 21.4226H17.8341V15.8536C17.8341 14.5256 17.8071 12.8166 15.9821 12.8166C14.1291 12.8166 13.8461 14.2616 13.8461 15.7556V21.4226H10.2921V9.97055H13.7061V11.5316H13.7521C14.2291 10.6316 15.3891 9.68155 17.1221 9.68155C20.7231 9.68155 21.3891 12.0516 21.3891 15.1366V21.4226H21.3881ZM6.27813 8.40355C5.13413 8.40355 4.21513 7.47755 4.21513 6.33855C4.21513 5.20055 5.13513 4.27555 6.27813 4.27555C7.41813 4.27555 8.34213 5.20055 8.34213 6.33855C8.34213 7.47755 7.41713 8.40355 6.27813 8.40355ZM8.06013 21.4226H4.49613V9.97055H8.06013V21.4226ZM23.1661 0.970551H2.71213C1.73313 0.970551 0.941132 1.74455 0.941132 2.69955V23.2416C0.941132 24.1975 1.73313 24.9706 2.71213 24.9706H23.1631C24.1411 24.9706 24.9411 24.1975 24.9411 23.2416V2.69955C24.9411 1.74455 24.1411 0.970551 23.1631 0.970551H23.1661Z" fill="black"/>
</g>
<defs>
<clipPath id="clip0_306_3526">
<rect width="24" height="24" fill="white" transform="translate(0.941132 0.970551)"/>
</clipPath>
</defs>
</svg>
