<svg width="30" height="31" viewBox="0 0 30 31" fill="none" xmlns="http://www.w3.org/2000/svg">
<path d="M14.4682 1.32519C14.8685 0.809817 15.6472 0.809818 16.0476 1.32519L17.0358 2.59736C17.3463 2.99703 17.9064 3.10174 18.3403 2.84121L19.7214 2.01194C20.2809 1.676 21.007 1.95731 21.1942 2.5825L21.6561 4.12576C21.8013 4.6106 22.2858 4.91058 22.7845 4.82438L24.3718 4.55002C25.0149 4.43887 25.5904 4.9635 25.5391 5.61408L25.4123 7.22C25.3725 7.72453 25.7159 8.17926 26.2121 8.27904L27.7914 8.59663C28.4312 8.7253 28.7783 9.42238 28.4954 10.0105L27.7971 11.4622C27.5777 11.9183 27.7337 12.4663 28.1603 12.7386L29.5182 13.6053C30.0683 13.9564 30.1402 14.7318 29.6639 15.178L28.4884 16.2794C28.1191 16.6254 28.0665 17.1928 28.3659 17.6008L29.3191 18.8995C29.7052 19.4256 29.4921 20.1746 28.8868 20.4186L27.3928 21.021C26.9234 21.2102 26.6694 21.7203 26.8013 22.209L27.2209 23.7643C27.3909 24.3943 26.9216 25.0158 26.2691 25.0247L24.6583 25.0467C24.1523 25.0536 23.7312 25.4375 23.6776 25.9407L23.5071 27.5426C23.438 28.1915 22.7759 28.6015 22.1642 28.374L20.6543 27.8127C20.1799 27.6363 19.6486 27.8422 19.4168 28.2921L18.6791 29.7242C18.3803 30.3043 17.6148 30.4474 17.1266 30.0144L15.9214 28.9455C15.5428 28.6097 14.973 28.6097 14.5943 28.9455L13.3891 30.0144C12.9009 30.4474 12.1354 30.3043 11.8366 29.7242L11.0989 28.2921C10.8672 27.8422 10.3358 27.6363 9.86146 27.8127L8.35152 28.374C7.73983 28.6015 7.07774 28.1915 7.00866 27.5426L6.83814 25.9407C6.78457 25.4375 6.36346 25.0536 5.85741 25.0467L4.24665 25.0247C3.5941 25.0158 3.12482 24.3943 3.29483 23.7643L3.71448 22.209C3.84632 21.7203 3.59233 21.2102 3.12295 21.021L1.6289 20.4186C1.02364 20.1746 0.810528 19.4256 1.19666 18.8995L2.14982 17.6008C2.44927 17.1928 2.39669 16.6254 2.02737 16.2794L0.851813 15.178C0.375581 14.7318 0.447433 13.9564 0.997546 13.6053L2.35547 12.7386C2.78209 12.4663 2.93803 11.9183 2.71865 11.4622L2.02035 10.0105C1.73746 9.42238 2.08457 8.7253 2.72436 8.59663L4.30366 8.27904C4.79983 8.17926 5.14323 7.72453 5.10341 7.22L4.97669 5.61408C4.92535 4.9635 5.50083 4.43887 6.1439 4.55002L7.73128 4.82438C8.22999 4.91058 8.71447 4.6106 8.8596 4.12576L9.32156 2.5825C9.5087 1.95731 10.2348 1.676 10.7943 2.01194L12.1754 2.84121C12.6093 3.10174 13.1694 2.99703 13.4799 2.59736L14.4682 1.32519Z" fill="white"/>
</svg>
