<svg width="153" height="152" viewBox="0 0 153 152" fill="none" xmlns="http://www.w3.org/2000/svg">
<path d="M35.8624 27.5221C35.216 28.0397 34.6989 28.4279 34.0526 28.8162C33.4062 29.2044 32.7599 29.3338 32.1135 29.4632C31.855 29.4632 31.5964 29.4632 31.4671 29.3338C31.3379 29.2044 31.2086 29.075 31.0793 28.8162C31.0793 28.6867 31.0793 28.4279 31.0793 28.2985C31.2086 28.1691 31.3379 28.0397 31.5964 28.0397C32.2428 27.9103 32.7599 27.7809 33.2769 27.5221C33.794 27.2633 34.3111 26.8751 34.8282 26.4869C35.6038 25.8399 35.9917 25.3223 36.1209 24.6753C36.2502 24.1577 36.1209 23.6401 35.7331 23.2519C35.4746 22.8636 35.0868 22.7342 34.6989 22.7342C34.3111 22.7342 33.794 22.993 33.0184 23.2519L31.4671 24.1577C30.5622 24.6753 29.6573 24.9341 28.8817 24.8047C28.1061 24.8047 27.4597 24.4165 26.9426 23.7695C26.4255 23.2519 26.167 22.6048 26.167 21.9578C26.167 21.3108 26.167 20.6638 26.5548 20.0168C26.8134 19.3698 27.3304 18.7228 27.9768 18.2052C28.4939 17.817 29.011 17.4287 29.6573 17.1699C30.1744 16.9111 30.8208 16.7817 31.4671 16.7817C31.7257 16.7817 31.855 16.7817 31.9842 16.9111C32.1135 17.0405 32.2428 17.1699 32.2428 17.4287C32.2428 17.5582 32.2428 17.817 32.1135 17.9464C31.9842 18.0758 31.855 18.2052 31.5964 18.2052C31.0793 18.2052 30.5622 18.3346 30.1744 18.5934C29.7866 18.8522 29.2695 19.111 28.8817 19.3698C28.2353 19.8874 27.8475 20.5344 27.7183 21.052C27.589 21.699 27.7183 22.2166 28.1061 22.6048C28.3646 22.993 28.7524 23.1225 29.1402 23.1225C29.5281 23.1225 30.0451 22.993 30.6915 22.6048L32.2428 21.699C33.2769 21.1814 34.0526 20.9226 34.8282 20.9226C35.6038 20.9226 36.2502 21.3108 36.7673 21.8284C37.1551 22.346 37.4136 22.993 37.5429 23.5107C37.6722 24.0283 37.4136 24.8047 37.1551 25.4517C37.0258 26.2281 36.5087 26.8751 35.8624 27.5221Z" fill="#030211"/>
<path d="M49.3071 18.7227C48.2729 19.2404 47.2387 19.4992 46.2046 19.4992C45.1704 19.4992 44.2655 19.111 43.4899 18.4639C42.7142 17.8169 41.9386 17.0405 41.4215 15.8759C40.9044 14.7113 40.5166 13.6761 40.5166 12.6408C40.5166 11.6056 40.7751 10.6998 41.2922 9.92339C41.8093 9.14697 42.5849 8.37056 43.7484 7.85295C44.3948 7.59415 44.9118 7.33534 45.5582 7.20594C46.2046 7.07654 46.7217 7.07654 47.368 7.20594C47.6266 7.20594 47.8851 7.33534 48.0144 7.46474C48.1436 7.59415 48.1436 7.85295 48.1436 7.98235C48.1436 8.24116 48.0144 8.37056 47.8851 8.49996C47.7558 8.62936 47.4973 8.62936 47.2387 8.62936C46.7217 8.49996 46.3338 8.49996 45.8167 8.62936C45.2997 8.75877 44.9118 8.88817 44.524 9.01757C43.3606 9.53518 42.7142 10.441 42.4557 11.3468C42.1971 12.2526 42.4557 13.5467 43.102 14.8407C43.7484 16.1347 44.524 17.0405 45.5582 17.4287C46.4631 17.8169 47.6266 17.6875 48.6607 17.1699C49.0485 16.9111 49.4364 16.6523 49.8242 16.3935C50.212 16.0053 50.4705 15.7465 50.7291 15.2289C50.8584 14.9701 50.9876 14.8407 51.2462 14.8407C51.3754 14.8407 51.634 14.8407 51.7633 14.9701C51.8925 15.0995 52.0218 15.2289 52.1511 15.4877C52.1511 15.7465 52.1511 15.8759 52.0218 16.1347C51.7633 16.6523 51.3754 17.1699 50.9876 17.6875C50.3413 17.9463 49.8242 18.3345 49.3071 18.7227Z" fill="#030211"/>
<path d="M59.6485 14.5819C59.1314 14.7113 58.7436 14.4525 58.6144 13.9349L56.4167 3.97089C56.2875 3.45329 56.546 3.06508 57.0631 2.93568L60.9412 2.02986C62.234 1.77106 63.2681 1.77106 64.0438 2.28866C64.8194 2.67687 65.3365 3.45329 65.595 4.61791C65.7243 5.52372 65.7243 6.30013 65.3365 6.94715C64.9487 7.59416 64.4316 8.11177 63.656 8.49997C64.173 8.49997 64.8194 8.88818 65.2072 9.40579L67.1463 11.735C67.4048 11.9938 67.5341 12.2526 67.4048 12.5114C67.4048 12.7702 67.1463 12.8997 66.7585 13.0291C66.4999 13.0291 66.3707 13.0291 66.1121 13.0291C65.9829 13.0291 65.7243 12.8997 65.595 12.6408L63.1389 9.794C62.7511 9.40579 62.4925 9.14699 62.1047 9.14699C61.7169 9.01758 61.3291 9.01758 60.9412 9.14699L59.1314 9.53519L60.0363 13.5467C60.4242 14.0643 60.1656 14.4525 59.6485 14.5819ZM59.1314 8.24117L61.9754 7.59416C63.656 7.20595 64.3023 6.30014 64.0438 5.00611C63.7852 3.58269 62.7511 3.06508 61.0705 3.45328L58.2265 4.1003L59.1314 8.24117Z" fill="#030211"/>
<path d="M79.2976 12.3821C78.1342 12.3821 77.2293 11.9939 76.3244 11.4763C75.5488 10.9587 74.9024 10.1822 74.5146 9.27642C74.1268 8.37061 73.8682 7.20599 73.9975 6.04137C73.9975 4.74734 74.256 3.71212 74.7731 2.80631C75.2902 1.90049 75.9366 1.25348 76.7122 0.735871C77.6171 0.347664 78.522 0.218262 79.6855 0.218262C80.8489 0.218262 81.7538 0.477066 82.5294 1.12408C83.3051 1.64169 83.9514 2.4181 84.3392 3.32392C84.7271 4.22973 84.9856 5.26495 84.8563 6.55897C84.8563 7.853 84.5978 8.88822 84.0807 9.79403C83.6929 10.5704 83.0465 11.2175 82.2709 11.7351C81.4953 12.2527 80.3318 12.3821 79.2976 12.3821ZM79.2976 10.8293C80.4611 10.8293 81.366 10.441 82.1416 9.66463C82.788 8.88822 83.1758 7.7236 83.3051 6.30017C83.3051 4.87674 83.0465 3.71212 82.4002 2.93571C81.7538 2.1593 80.8489 1.64169 79.6855 1.64169C78.522 1.64169 77.6171 1.90049 76.8415 2.67691C76.1951 3.45332 75.8073 4.61794 75.678 6.04137C75.5488 7.46479 75.9366 8.62941 76.5829 9.40583C77.2293 10.441 78.1342 10.8293 79.2976 10.8293Z" fill="#030211"/>
<path d="M92.2252 13.9348C91.7081 13.8054 91.4496 13.4172 91.5788 12.7702L94.4228 3.065C94.5521 2.54739 94.9399 2.28858 95.457 2.41799C95.9741 2.54739 96.2326 2.9356 96.1034 3.4532L93.5179 12.6408L98.5595 14.0642C99.0766 14.1936 99.2059 14.4524 99.0766 14.97C98.9473 15.4876 98.5595 15.617 98.1717 15.4876L92.2252 13.9348Z" fill="#030211"/>
<path d="M105.023 18.5934C104.506 18.3346 104.377 17.9464 104.635 17.4288L109.418 8.50003C109.677 7.98242 110.065 7.85302 110.582 8.11182C111.099 8.37063 111.228 8.75884 110.969 9.27644L106.445 17.6876L110.969 20.1462C111.487 20.405 111.487 20.7933 111.357 21.1815C111.099 21.5697 110.711 21.6991 110.323 21.4403L105.023 18.5934Z" fill="#030211"/>
<path d="M123.25 31.9217C122.862 31.4041 122.862 31.0159 123.379 30.6277L131.006 24.287C131.523 23.8988 131.911 23.8988 132.299 24.4164L134.367 26.875C135.66 28.4278 136.177 29.8513 136.048 31.2747C135.919 32.6981 135.143 34.1215 133.721 35.2862C132.299 36.4508 130.748 37.0978 129.326 36.839C127.904 36.7096 126.482 35.8038 125.189 34.3803L123.25 31.9217ZM124.931 31.6629L126.482 33.4745C128.421 35.6744 130.489 35.9332 132.687 33.9921C135.014 32.0511 135.143 29.9807 133.333 27.7808L131.782 25.9692L124.931 31.6629Z" fill="#030211"/>
<path d="M134.755 49.5208C134.238 48.4855 134.109 47.4503 134.238 46.5445C134.367 45.6387 134.755 44.7329 135.401 43.9565C136.048 43.18 136.953 42.533 137.987 42.0154C139.15 41.4978 140.185 41.239 141.219 41.239C142.253 41.239 143.158 41.6272 143.933 42.1448C144.709 42.6624 145.355 43.4389 145.872 44.4741C146.39 45.5093 146.519 46.5445 146.39 47.4503C146.26 48.3561 145.872 49.262 145.226 50.0384C144.58 50.8148 143.675 51.4618 142.641 51.9794C141.477 52.497 140.443 52.7558 139.409 52.7558C138.375 52.7558 137.47 52.3676 136.694 51.85C135.789 51.3324 135.272 50.556 134.755 49.5208ZM136.177 48.8737C136.694 49.909 137.47 50.556 138.375 50.8148C139.409 51.0736 140.572 50.9442 141.865 50.2972C143.158 49.6502 144.063 48.8737 144.58 47.9679C145.097 47.0621 144.968 46.0269 144.58 44.9917C144.063 43.9565 143.287 43.3094 142.382 43.0506C141.348 42.7918 140.185 42.9212 138.892 43.5683C137.599 44.2153 136.694 44.9917 136.177 45.8975C135.66 46.8033 135.66 47.8385 136.177 48.8737Z" fill="#030211"/>
<path d="M139.538 64.4018C139.538 63.8842 139.667 63.6254 140.184 63.3666L150.009 58.5787C150.268 58.4493 150.526 58.4493 150.785 58.5787C151.043 58.7081 151.173 58.9669 151.173 59.2258C151.173 59.4846 151.173 59.614 151.043 59.8728C150.914 60.0022 150.785 60.1316 150.526 60.261L142.253 64.2724L151.302 66.2135C151.819 66.3429 152.077 66.6017 152.077 66.9899C152.077 67.2487 152.077 67.3781 151.948 67.5075C151.819 67.6369 151.69 67.7663 151.431 67.8957L143.028 71.9072L152.207 73.8482C152.465 73.8482 152.595 73.9776 152.724 74.107C152.853 74.2364 152.982 74.3658 152.982 74.6246C152.982 74.8834 152.982 75.1422 152.724 75.2716C152.595 75.401 152.336 75.5304 151.948 75.401L141.219 73.0718C140.96 72.9424 140.702 72.9424 140.572 72.813C140.443 72.6836 140.314 72.5542 140.314 72.2954C140.314 72.0366 140.314 71.7778 140.443 71.6484C140.572 71.519 140.702 71.3896 140.96 71.2602L149.104 67.2487L140.184 65.3077C139.926 65.3077 139.667 65.1783 139.538 65.0489C139.667 64.7901 139.667 64.6606 139.538 64.4018Z" fill="#030211"/>
<path d="M140.185 83.9417C140.314 83.4241 140.573 83.1653 141.219 83.2947L151.431 85.2357C151.69 85.2357 151.948 85.3651 152.078 85.6239C152.207 85.7533 152.207 86.0121 152.207 86.271C152.207 86.5298 152.078 86.6592 151.948 86.6592C151.819 86.6592 151.69 86.7886 151.431 86.918L141.736 91.7058L149.88 93.2587C150.397 93.3881 150.656 93.6469 150.526 94.1645C150.397 94.6821 150.139 94.9409 149.622 94.8115L139.409 92.8705C139.151 92.8705 139.021 92.7411 138.892 92.6117C138.763 92.4823 138.763 92.2235 138.763 92.0941C138.763 91.8352 138.892 91.7058 139.021 91.5764C139.151 91.447 139.28 91.3176 139.538 91.3176L149.234 86.5298L141.09 84.9769C140.314 84.7181 140.055 84.4593 140.185 83.9417Z" fill="#030211"/>
<path d="M118.209 124.186C118.855 123.668 119.372 123.28 120.019 122.892C120.665 122.503 121.311 122.374 121.958 122.245C122.216 122.245 122.475 122.245 122.604 122.374C122.733 122.503 122.863 122.633 122.992 122.892C122.992 123.021 122.992 123.28 122.992 123.409C122.992 123.539 122.733 123.668 122.475 123.668C121.828 123.797 121.311 123.927 120.794 124.186C120.277 124.444 119.76 124.833 119.243 125.221C118.467 125.868 118.08 126.385 117.95 127.033C117.821 127.55 117.95 128.068 118.338 128.456C118.597 128.844 118.984 128.974 119.372 128.974C119.76 128.974 120.277 128.715 121.053 128.327L122.604 127.421C123.509 126.903 124.414 126.644 125.19 126.774C125.965 126.774 126.612 127.162 127.129 127.809C127.646 128.327 127.904 128.974 127.904 129.621C128.034 130.268 127.904 130.915 127.516 131.562C127.258 132.209 126.741 132.856 126.094 133.373C125.577 133.891 125.06 134.15 124.414 134.408C123.897 134.667 123.25 134.797 122.604 134.797C122.346 134.797 122.216 134.797 122.087 134.667C121.958 134.538 121.828 134.408 121.828 134.15C121.828 133.891 121.828 133.761 121.958 133.632C122.087 133.503 122.216 133.373 122.475 133.373C122.992 133.373 123.509 133.114 123.897 132.985C124.285 132.726 124.802 132.467 125.19 132.209C125.836 131.691 126.224 131.044 126.353 130.526C126.482 129.879 126.353 129.362 125.965 128.974C125.707 128.585 125.319 128.456 124.931 128.456C124.543 128.456 124.026 128.585 123.38 128.974L121.828 129.879C120.794 130.397 120.019 130.656 119.243 130.656C118.467 130.656 117.821 130.268 117.304 129.75C116.787 129.232 116.658 128.585 116.528 128.068C116.528 127.421 116.658 126.774 116.916 126.127C117.045 125.48 117.562 124.833 118.209 124.186Z" fill="#030211"/>
<path d="M104.764 132.985C105.798 132.467 106.832 132.208 107.866 132.208C108.901 132.208 109.806 132.597 110.581 133.244C111.357 133.891 112.132 134.667 112.649 135.832C113.167 136.996 113.554 138.032 113.554 139.067C113.554 140.102 113.296 141.008 112.779 141.784C112.262 142.561 111.486 143.337 110.323 143.855C109.676 144.114 109.159 144.372 108.513 144.502C107.866 144.631 107.349 144.631 106.703 144.502C106.444 144.502 106.186 144.372 106.057 144.243C105.927 144.114 105.927 143.855 105.927 143.725C105.927 143.466 106.057 143.337 106.186 143.208C106.315 143.078 106.574 143.078 106.832 143.078C107.349 143.208 107.737 143.208 108.254 143.078C108.771 142.949 109.159 142.819 109.547 142.561C110.71 142.043 111.357 141.137 111.615 140.231C111.874 139.326 111.615 138.032 110.969 136.738C110.323 135.444 109.547 134.667 108.513 134.15C107.608 133.761 106.444 133.891 105.41 134.408C105.022 134.667 104.635 134.926 104.247 135.185C103.859 135.573 103.6 135.832 103.342 136.349C103.213 136.608 103.083 136.738 102.825 136.738C102.696 136.738 102.437 136.738 102.308 136.608C102.178 136.479 102.049 136.349 101.92 136.091C101.92 135.832 101.92 135.702 102.049 135.444C102.308 134.926 102.696 134.408 103.083 133.891C103.73 133.761 104.247 133.373 104.764 132.985Z" fill="#030211"/>
<path d="M94.4223 137.126C94.9394 136.997 95.3272 137.255 95.4564 137.773L97.6541 147.737C97.7833 148.255 97.5248 148.643 97.0077 148.772L93.1295 149.678C91.8368 149.937 90.8026 149.937 90.027 149.419C89.2514 149.031 88.7343 148.255 88.4757 147.09C88.2172 146.184 88.3465 145.408 88.7343 144.761C89.1221 144.114 89.6392 143.596 90.4148 143.208C89.8977 143.208 89.2514 142.82 88.8636 142.302L86.9245 139.973C86.6659 139.714 86.5367 139.455 86.6659 139.196C86.7952 138.938 86.9245 138.808 87.3123 138.679C87.5709 138.679 87.7001 138.679 87.9587 138.679C88.0879 138.679 88.3465 138.808 88.4757 139.067L90.9319 141.914C91.3197 142.302 91.5783 142.561 91.9661 142.561C92.3539 142.69 92.7417 142.69 93.1295 142.561L94.9393 142.173L94.0344 138.161C93.6466 137.644 93.9052 137.255 94.4223 137.126ZM94.9393 143.467L92.0954 144.114C90.4148 144.502 89.7685 145.408 90.027 146.831C90.2856 148.255 91.3197 148.643 93.0003 148.384L95.8443 147.737L94.9393 143.467Z" fill="#030211"/>
<path d="M74.773 139.455C75.9364 139.455 76.8413 139.714 77.7462 140.361C78.5219 140.878 79.1682 141.655 79.556 142.561C79.9439 143.466 80.2024 144.631 80.0731 145.796C80.0731 147.09 79.8146 148.125 79.2975 149.031C78.7804 149.937 78.134 150.584 77.3584 151.101C76.4535 151.619 75.5486 151.748 74.3852 151.748C73.2217 151.748 72.3168 151.489 71.5412 150.972C70.7656 150.454 70.1192 149.678 69.7314 148.772C69.3436 147.866 69.085 146.831 69.2143 145.537C69.2143 144.243 69.4728 143.208 69.9899 142.302C70.507 141.396 71.1534 140.749 71.929 140.231C72.7046 139.584 73.7388 139.326 74.773 139.455ZM74.773 140.878C73.6095 140.878 72.7046 141.267 71.929 142.043C71.2826 142.819 70.8948 143.984 70.8948 145.407C70.8948 146.831 71.1534 147.996 71.7997 148.772C72.4461 149.548 73.351 150.066 74.5144 150.066C75.6779 150.066 76.5828 149.678 77.3584 148.901C78.0048 148.125 78.3926 146.96 78.3926 145.537C78.3926 144.113 78.1341 142.949 77.4877 142.172C76.8413 141.396 75.9364 141.008 74.773 140.878Z" fill="#030211"/>
<path d="M61.8459 137.773C62.363 137.902 62.6215 138.29 62.4923 138.937L59.7776 148.643C59.6483 149.16 59.2605 149.419 58.7434 149.29C58.2263 149.16 57.9678 148.772 58.097 148.254L60.6825 139.067L55.6409 137.643C55.1238 137.514 54.9945 137.255 55.1238 136.738C55.253 136.22 55.6409 136.091 56.0287 136.22L61.8459 137.773Z" fill="#030211"/>
<path d="M49.0481 133.244C49.5652 133.503 49.6945 133.891 49.4359 134.408L44.6529 143.337C44.3943 143.855 44.0065 143.984 43.4894 143.725C42.9723 143.466 42.8431 143.078 43.1016 142.561L47.6261 134.15L42.9723 131.691C42.4552 131.432 42.4552 131.173 42.5845 130.656C42.8431 130.267 43.2309 130.138 43.6187 130.397L49.0481 133.244Z" fill="#030211"/>
<path d="M30.8211 119.915C31.2089 120.433 31.2089 120.821 30.6918 121.209L23.0648 127.679C22.5477 128.068 22.1599 128.068 21.7721 127.55L19.7037 125.091C18.411 123.539 17.8939 122.115 18.0232 120.692C18.1524 119.268 18.9281 117.845 20.3501 116.68C21.7721 115.516 23.3233 114.869 24.7453 115.127C26.1673 115.257 27.5893 116.163 28.882 117.586L30.8211 119.915ZM29.1405 120.174L27.5893 118.363C25.6502 116.163 23.5819 115.904 21.3842 117.845C19.0573 119.786 18.9281 121.856 20.7379 124.056L22.2891 125.868L29.1405 120.174Z" fill="#030211"/>
<path d="M19.3159 102.446C19.8329 103.481 19.9622 104.517 19.8329 105.422C19.7037 106.328 19.3159 107.234 18.6695 108.011C18.0231 108.787 17.1182 109.434 16.0841 109.952C14.9206 110.469 13.8864 110.728 12.8523 110.728C11.8181 110.728 10.9132 110.34 10.1376 109.822C9.36193 109.305 8.71557 108.528 8.19848 107.493C7.68139 106.458 7.55212 105.422 7.68139 104.517C7.81066 103.611 8.19848 102.705 8.84484 101.929C9.4912 101.152 10.3961 100.505 11.4303 99.9876C12.5937 99.47 13.6279 99.2112 14.6621 99.2112C15.6962 99.2112 16.6011 99.47 17.3768 100.117C18.1524 100.635 18.7988 101.411 19.3159 102.446ZM17.8939 103.093C17.3768 102.058 16.6011 101.411 15.6962 101.152C14.6621 100.893 13.4986 101.023 12.2059 101.67C10.9132 102.317 10.0083 103.093 9.62047 103.999C9.23265 104.905 9.23265 105.94 9.74974 106.975C10.2668 108.011 11.0425 108.658 11.9474 108.916C12.9815 109.175 14.145 109.046 15.4377 108.399C16.7304 107.752 17.6353 106.975 18.1524 106.07C18.411 105.164 18.411 104.128 17.8939 103.093Z" fill="#030211"/>
<path d="M14.4033 87.5648C14.4033 88.0824 14.274 88.3412 13.7569 88.6L3.93224 93.3879C3.67369 93.5173 3.41515 93.5173 3.15661 93.3879C2.89806 93.2585 2.76879 92.9997 2.76879 92.7409C2.76879 92.482 2.76879 92.3526 2.89806 92.0938C3.02733 91.9644 3.15661 91.835 3.41515 91.7056L11.6885 87.6942L2.63952 85.7531C2.12243 85.6237 1.86389 85.3649 1.73462 84.9767C1.73462 84.7179 1.73462 84.5885 1.86389 84.4591C1.99316 84.3297 2.12243 84.2003 2.38097 84.0709L10.7836 80.0594L1.60534 78.1184C1.3468 78.1184 1.21753 77.989 1.08826 77.8596C1.08826 77.7302 0.958984 77.6008 0.958984 77.342C0.958984 77.0832 0.958984 76.8244 1.21753 76.695C1.3468 76.5656 1.60534 76.4362 1.99316 76.5656L12.5935 78.8948C12.852 79.0242 13.1105 79.0242 13.2398 79.1536C13.3691 79.283 13.4984 79.4124 13.4984 79.6712C13.4984 79.93 13.4984 80.1888 13.3691 80.3182C13.2398 80.4476 13.1105 80.577 12.852 80.7064L4.70787 84.7179L13.6276 86.6589C13.8862 86.6589 14.1447 86.7883 14.274 86.9177C14.274 87.1766 14.4033 87.306 14.4033 87.5648Z" fill="#030211"/>
<path d="M13.7567 68.0248C13.6274 68.5424 13.3688 68.8012 12.7225 68.6718L2.51001 66.7308C2.25146 66.7308 1.99292 66.6014 1.86365 66.3426C1.73437 66.2132 1.73438 65.9544 1.73438 65.6956C1.73438 65.4368 1.86365 65.3074 1.99292 65.3074C2.12219 65.178 2.25146 65.178 2.51001 65.0486L12.0761 60.2607L3.932 58.7079C3.41491 58.5785 3.15637 58.3196 3.28564 57.802C3.54418 57.2844 3.80272 57.155 4.31981 57.155L14.5323 59.0961C14.7908 59.0961 14.9201 59.2255 15.0494 59.3549C15.1786 59.4843 15.1786 59.7431 15.1786 59.8725C15.1786 60.1313 15.0494 60.2607 14.9201 60.3901C14.7908 60.5195 14.6616 60.6489 14.403 60.6489L4.70763 65.4368L12.8518 66.9896C13.6274 67.2484 13.8859 67.5072 13.7567 68.0248Z" fill="#030211"/>
<path d="M16.9036 34.3679L18.4635 38.7545L22.6684 36.7558L20.6696 40.9606L25.0562 42.5205L20.6696 44.0805L22.6684 48.2853L18.4635 46.2866L16.9036 50.6732L15.3437 46.2866L11.1388 48.2853L13.1376 44.0805L8.75098 42.5205L13.1376 40.9606L11.1388 36.7558L15.3437 38.7545L16.9036 34.3679Z" fill="#1C1C1C"/>
<path d="M137.52 103.291L139.08 107.678L143.285 105.679L141.286 109.884L145.672 111.444L141.286 113.004L143.285 117.209L139.08 115.21L137.52 119.597L135.96 115.21L131.755 117.209L133.754 113.004L129.367 111.444L133.754 109.884L131.755 105.679L135.96 107.678L137.52 103.291Z" fill="#1C1C1C"/>
</svg>
