<svg width="79" height="79" viewBox="0 0 79 79" fill="none" xmlns="http://www.w3.org/2000/svg">
<path d="M39.5004 39.6916V2.19165C46.0713 2.19239 52.5267 3.91972 58.22 7.20062C63.9132 10.4815 68.6445 15.2008 71.9397 20.8857C75.235 26.5707 76.9787 33.0217 76.996 39.5926C77.0134 46.1635 75.3038 52.6237 72.0386 58.3259C68.7734 64.0282 64.0672 68.7724 58.3914 72.0833C52.7155 75.3942 46.2693 77.1556 39.6985 77.1911C33.1276 77.2266 26.6628 75.5348 20.9516 72.2853C15.2403 69.0359 10.4832 64.3427 7.15663 58.676M71.9613 20.9416L7.03945 58.4416M2.62538 46.5667C2.19905 44.3001 1.98977 41.998 2.00038 39.6916C1.99545 31.9361 4.39771 24.3703 8.87568 18.0382C13.3536 11.7061 19.6865 6.91986 27.0004 4.34009V32.4651L2.62538 46.5667Z" stroke="white" stroke-width="3" stroke-linecap="round" stroke-linejoin="round"/>
</svg>
